<?xml version="1.0" encoding="iso-8859-1"?>
<!-- Generator: Adobe Illustrator 16.0.0, SVG Export Plug-In . SVG Version: 6.00 Build 0)  -->
<!DOCTYPE svg PUBLIC "-//W3C//DTD SVG 1.1//EN" "http://www.w3.org/Graphics/SVG/1.1/DTD/svg11.dtd">
<svg version="1.1" id="Layer_1" xmlns="http://www.w3.org/2000/svg" xmlns:xlink="http://www.w3.org/1999/xlink" x="0px" y="0px"
	 width="13.527px" height="31.972px" viewBox="0 0 13.527 31.972" style="enable-background:new 0 0 13.527 31.972;"
	 xml:space="preserve">
<g>
	<path d="M9.654,7.634c1.823,0,3.3-1.479,3.3-3.301c0-0.731-0.245-1.4-0.646-1.947l0.379-1.579l-1.773,0.322L10.188,0L8.254,1.29
		l-1.37-0.564L6.562,2.337L5.191,3.144l1.214,1.71C6.657,6.428,8.009,7.634,9.654,7.634z"/>
	<polygon points="11.72,25.632 10.863,19.791 6.521,19.747 8.496,25.632 7.227,31.112 7.072,31.112 7.072,31.972 11.908,31.972 
		11.908,31.112 10.916,31.112 	"/>
	<path d="M10.863,19.419v-1.66l-3.426-2.91l-0.026-0.004V9.409l2.564,0.041l-0.01,3.191l0.898,0.905v-5.47h-4.79L5.362,8.328V8.075
		c0,0-0.16-0.005-0.415,0.005V7.546c0-0.181-0.147-0.328-0.328-0.328c-0.181,0-0.328,0.147-0.328,0.328v0.591
		C3.485,8.24,1.436,8.505,0.914,9.188C0.001,10.384,0,18.968,0,18.968l5.362-0.631v-0.594l0.712,0.409v1.267H10.863z M5.362,16.256
		V9.732L6.074,9.54v7.125L5.362,16.256z"/>
	<polygon points="9.63,12.895 9.584,9.833 7.844,9.821 7.844,14.505 12.212,18.365 13.527,16.658 	"/>
</g>
<g>
</g>
<g>
</g>
<g>
</g>
<g>
</g>
<g>
</g>
<g>
</g>
<g>
</g>
<g>
</g>
<g>
</g>
<g>
</g>
<g>
</g>
<g>
</g>
<g>
</g>
<g>
</g>
<g>
</g>
</svg>
