<?xml version="1.0" encoding="utf-8"?>
<!-- Generator: Adobe Illustrator 16.0.4, SVG Export Plug-In . SVG Version: 6.00 Build 0)  -->
<!DOCTYPE svg PUBLIC "-//W3C//DTD SVG 1.1//EN" "http://www.w3.org/Graphics/SVG/1.1/DTD/svg11.dtd">
<svg version="1.1" id="Layer_1" xmlns="http://www.w3.org/2000/svg" xmlns:xlink="http://www.w3.org/1999/xlink" x="0px" y="0px"
	 width="27.021px" height="31.477px" viewBox="0 0 27.021 31.477" enable-background="new 0 0 27.021 31.477" xml:space="preserve">
<path d="M27.02,19.316c-0.303-0.336-3.153-8.431-3.153-8.431l-2.691-0.389l-1.607,1.927l-2.023-1.84l-1.875-0.166L9.614,5.252
	c0.323-0.249,0.522-0.55,0.571-0.886c0.076-0.523-0.189-1.104-0.791-1.727L9.24,2.479l-0.154,0.16
	C8.957,2.771,8.83,2.901,8.705,3.027C8.399,2.754,7.688,2.224,6.771,2.26L6.652,2.266L6.592,2.37C5.53,4.25,1.583,6.938,1.122,7.248
	C0.945,7.312,0.75,7.434,0.542,7.649c-0.75,0.777-0.628,1.961-0.196,2.729c0.371,0.662,0.945,1.04,1.553,1.04
	c0.105,0,0.213-0.012,0.32-0.035c0.298-0.065,0.526-0.216,0.702-0.418c0.293-0.301,1.757-1.79,3.158-3.022
	c0.145,0.172,0.535,0.666,0.692,1.186C6.97,9.772,7.056,10.76,7.056,10.76l0.32-0.697l0.465,0.146c0,0-0.068-0.898-0.336-1.418
	C7.237,8.271,6.862,7.736,6.862,7.736s0.692,0.35,1.09,0.785c0.396,0.438,0.757,1.32,0.757,1.32l0.264-0.515l0.702-0.165
	l5.983,5.755c-0.058,3.718-0.216,12.572-0.253,13.246c-0.052,0.939-2.75,1.49-2.242,2.398c0.197,0.317,1.544,0.324,3.274,0.286
	v0.628h2.633V30.79c0.079-0.001,0.158-0.002,0.237-0.003c0.282-0.002,0.564-0.003,0.845-0.002v0.689h2.635V30.81
	c1.472,0.014,2.554-0.002,2.679-0.185c0.421-0.616-1.826-1.378-1.859-2.322c-0.023-0.688-0.276-7.897-0.414-11.797l0.021-0.06
	l0.972,4.019c0,0,0.3-0.106,0.703-0.254l0.269,0.7l1.633-0.625l-0.27-0.703C26.835,19.451,27.048,19.346,27.02,19.316z M3.108,7.589
	L2.91,7.635l0.034,0.2c0.14,0.79,0.264,2.893-0.818,3.131c-0.631,0.141-1.142-0.318-1.407-0.796
	C0.363,9.535,0.252,8.567,0.851,7.946c0.3-0.312,0.572-0.399,0.812-0.264c0.157,0.089,0.29,0.257,0.389,0.45
	C1.895,8.285,1.566,8.59,0.963,9.104L0.867,9.186L0.891,9.31c0.16,0.796,0.596,0.896,0.775,0.901c0.419,0.01,0.816-0.375,0.98-0.971
	c0.14-0.507-0.13-1.564-0.773-1.932c-0.016-0.009-0.03-0.018-0.047-0.024C2.386,6.896,3.32,6.221,4.26,5.441
	c0.381,0.072,0.881,0.233,1.194,0.598C3.79,7.397,3.117,7.587,3.108,7.589z M2.211,8.573c0.051,0.214,0.06,0.417,0.022,0.554
	C2.116,9.557,1.867,9.784,1.688,9.784c-0.003,0-0.005,0-0.008-0.001C1.538,9.778,1.415,9.617,1.34,9.346
	C1.757,8.989,2.033,8.738,2.211,8.573z M3.383,9.895C3.526,9.133,3.443,8.3,3.395,7.939c0.313-0.133,1.029-0.508,2.289-1.533
	C5.875,6.794,5.96,7.172,5.996,7.447C5.054,8.263,4.059,9.225,3.383,9.895z M5.273,4.554C5.946,3.928,6.543,3.28,6.902,2.688
	c0.69,0.017,1.247,0.424,1.499,0.646c-0.744,0.745-1.398,1.36-1.97,1.869C6.06,4.742,5.624,4.59,5.273,4.554z M6.677,5.558
	c0.72-0.641,1.567-1.444,2.559-2.459c0.398,0.456,0.575,0.859,0.525,1.204c-0.042,0.289-0.249,0.541-0.615,0.75L9.004,4.51
	L7.536,5.463l0.161,0.619C7.494,6.235,7.281,6.397,7.062,6.569C7.059,6.372,7.002,6.088,6.677,5.558z M8.273,7.877
	C8.021,7.7,7.327,7.252,7.136,7.057c0.065-0.052,0.128-0.101,0.192-0.151l1.418,1.364C8.544,8.094,8.362,7.941,8.273,7.877z
	 M15.129,0.888h-1.947V0h12.832v0.889h-0.578v2.05h0.315v1.734h-1.475V2.939h0.475V0.888h-0.947V3.78l-0.275,0.086
	c0.201,0.502,0.318,1.047,0.318,1.62c0,2.405-1.951,4.355-4.356,4.355c-2.403,0-4.354-1.95-4.354-4.355
	c0-0.57,0.117-1.112,0.316-1.611L15.129,3.78V0.888z"/>
</svg>
